<svg xmlns="http://www.w3.org/2000/svg" width="65.928" height="65.928" viewBox="0 0 65.928 65.928">
  <g id="Komponente_14_1" data-name="Komponente 14 – 1" opacity="0.76">
    <path id="left-arrow-5-458057" d="M110.76,188.652a1.192,1.192,0,0,0,0-1.707L100.311,175.7h44.783a1.21,1.21,0,1,0,0-2.418H100.311l10.433-11.242a1.188,1.188,0,0,0,.016-1.692,1.305,1.305,0,0,0-1.794-.015s-12.462,13.146-12.588,13.3a1.288,1.288,0,0,0-.378.861,1.219,1.219,0,0,0,.378.861c.126.121,12.588,13.3,12.588,13.3a1.3,1.3,0,0,0,.9.348A1.331,1.331,0,0,0,110.76,188.652Z" transform="translate(-87.353 -141.031)" fill="#163359"/>
    <g id="remove-330-458130">
      <path id="Pfad_15" data-name="Pfad 15" d="M80.964,48a32.964,32.964,0,1,0,32.964,32.964A32.959,32.959,0,0,0,80.964,48Zm0,63.186a30.222,30.222,0,1,1,30.222-30.222A30.257,30.257,0,0,1,80.964,111.186Z" transform="translate(-48 -48)" fill="#163359"/>
    </g>
  </g>
</svg>
