<svg xmlns="http://www.w3.org/2000/svg" xmlns:xlink="http://www.w3.org/1999/xlink" width="378" height="196" viewBox="0 0 378 196">
  <defs>
    <filter id="choicely" x="0" y="0" width="378" height="196" filterUnits="userSpaceOnUse">
      <feOffset dy="3" input="SourceAlpha"/>
      <feGaussianBlur stdDeviation="20" result="blur"/>
      <feFlood flood-opacity="0.161"/>
      <feComposite operator="in" in2="blur"/>
      <feComposite in="SourceGraphic"/>
    </filter>
  </defs>
  <g id="Gruppe_4" data-name="Gruppe 4" transform="translate(-18 -337)">
    <g id="Komponente_2_1" data-name="Komponente 2 – 1" transform="translate(30 342)">
      <path id="Differenzmenge_2" data-name="Differenzmenge 2" d="M16,37.418h0A17.71,17.71,0,0,1,4.625,31.307a18.918,18.918,0,0,1-3.391-5.733,19.7,19.7,0,0,1,0-13.729A18.917,18.917,0,0,1,4.625,6.111,17.71,17.71,0,0,1,16,0V37.418Z" transform="translate(83.448) rotate(90)" fill="#6c63ff"/>
      <path id="Differenzmenge_3" data-name="Differenzmenge 3" d="M16,36.81h0A17.8,17.8,0,0,1,4.625,30.8a18.548,18.548,0,0,1-3.391-5.64,19.089,19.089,0,0,1,0-13.506,18.547,18.547,0,0,1,3.391-5.64A17.8,17.8,0,0,1,16,0V36.809Z" transform="translate(1.106 63) rotate(-90)" fill="#20f6ce"/>
      <ellipse id="Ellipse_3" data-name="Ellipse 3" cx="19" cy="18.5" rx="19" ry="18.5" fill="#ffd17e"/>
      <circle id="Ellipse_4" data-name="Ellipse 4" cx="19" cy="19" r="19" transform="translate(46 25)" fill="#f47"/>
    </g>
    <g id="Komponente_3_1" data-name="Komponente 3 – 1" transform="translate(78 394)">
      <g transform="matrix(1, 0, 0, 1, -60, -57)" filter="url(#choicely)" style="mix-blend-mode: multiply;isolation: isolate">
        <text id="choicely-2" data-name="choicely" transform="translate(60 118)" fill="#0a335c" font-size="63" font-family="Atami-Bold, Atami" font-weight="700" letter-spacing="0.03em"><tspan x="0" y="0">choicely</tspan></text>
      </g>
    </g>
  </g>
</svg>
